<svg width="51" height="51" viewBox="0 0 51 51" fill="none" xmlns="http://www.w3.org/2000/svg">
<circle cx="25.5" cy="25.5" r="25.5" fill="#013EE6"/>
<g clip-path="url(#clip0_2671_8980)">
<path d="M23.0116 25.0078L13.4218 34.5977C12.8698 35.1496 12.8698 36.0418 13.4218 36.5938C13.9738 37.1458 14.866 37.1458 15.418 36.5938L25.0078 27.004L34.5977 36.5938C35.1496 37.1458 36.0418 37.1458 36.5938 36.5938C37.1458 36.0418 37.1458 35.1496 36.5938 34.5977L27.004 25.0078L36.5938 15.418C37.1458 14.866 37.1458 13.9738 36.5938 13.4218C36.3185 13.1465 35.9571 13.0082 35.5957 13.0082C35.2343 13.0082 34.873 13.1466 34.5977 13.4218L25.0078 23.0117L15.418 13.4218C15.1427 13.1465 14.7813 13.0082 14.4199 13.0082C14.0585 13.0082 13.6971 13.1466 13.4218 13.4218C12.8699 13.9738 12.8699 14.866 13.4218 15.418L23.0116 25.0078Z" fill="white"/>
</g>
<defs>
<clipPath id="clip0_2671_8980">
<rect width="24" height="24" fill="white" transform="matrix(-1 0 0 -1 37.0078 37.0078)"/>
</clipPath>
</defs>
</svg>
