<svg width="266" height="61" viewBox="0 0 266 61" fill="none" xmlns="http://www.w3.org/2000/svg">
<path d="M66.9868 34.7412L67.0339 34.7889C67.0339 35.7927 67.2189 36.7585 67.5873 37.6899C67.9556 38.6212 68.4652 39.4455 69.1176 40.1663C69.7683 40.887 70.5424 41.4694 71.4365 41.9137C72.3307 42.3596 73.2963 42.59 74.3316 42.6048C75.289 42.6213 76.1994 42.4798 77.0611 42.1803C77.9245 41.8808 78.7407 41.3839 79.5082 40.6879C79.6966 40.5414 79.8928 40.4016 80.0973 40.2633C80.3018 40.1268 80.5209 40.0297 80.7562 39.9721C80.9915 39.9161 81.2382 39.9161 81.4979 39.9721C81.7575 40.0297 82.0268 40.186 82.3091 40.446C82.7019 40.8014 82.8901 41.2424 82.8739 41.7689C82.8577 42.2955 82.6467 42.7759 82.2377 43.2136C81.2965 44.2173 80.1541 44.9808 78.8137 45.5074C77.4716 46.0323 76.0793 46.2955 74.6367 46.2955C73.0837 46.2955 71.628 46.001 70.2714 45.4103C68.9131 44.8196 67.7252 44.0067 66.7061 42.9717C65.6854 41.9368 64.8821 40.7273 64.293 39.3435C63.7039 37.9597 63.4102 36.4673 63.4102 34.8663L63.4573 34.7692C63.441 34.7527 63.4346 34.7363 63.4346 34.7215L63.4102 34.6968C63.4102 33.0958 63.7039 31.5902 64.293 30.1833C64.8821 28.7765 65.6854 27.5506 66.7061 26.5058C67.7252 25.4625 68.9147 24.6365 70.2714 24.031C71.628 23.4238 73.0837 23.1211 74.6367 23.1211C76.0956 23.1211 77.4927 23.3843 78.8266 23.9092C80.1606 24.4358 81.2982 25.1993 82.2395 26.203C82.6467 26.6407 82.8594 27.1244 82.8756 27.6592C82.8902 28.1923 82.7019 28.6383 82.3108 28.9937C82.0284 29.252 81.7575 29.41 81.4995 29.4676C81.2398 29.5251 80.9932 29.5251 80.7579 29.4676C80.5226 29.4116 80.3034 29.3096 80.0989 29.1648C79.8944 29.0184 79.6982 28.8736 79.5099 28.7271C78.757 28.0475 77.9438 27.5539 77.074 27.2462C76.2026 26.9385 75.289 26.7937 74.3316 26.8102C73.3109 26.8266 72.3582 27.052 71.4721 27.4897C70.5862 27.9274 69.812 28.5083 69.1532 29.2372C68.4943 29.9661 67.9767 30.7987 67.6003 31.7366C67.2238 32.6745 67.0355 33.6536 67.0355 34.6738C67.0339 34.6836 67.0193 34.7083 66.9868 34.7412Z" fill="#231F20"/>
<path d="M89.8164 44.2318C89.8164 44.7337 89.6444 45.1582 89.2987 45.5054C88.9531 45.8542 88.5376 46.027 88.0508 46.027C87.564 46.027 87.1485 45.8526 86.8029 45.5054C86.4572 45.1582 86.2852 44.7337 86.2852 44.2318V16.7578C86.2852 16.2395 86.4572 15.8116 86.8029 15.471C87.1485 15.1304 87.564 14.9609 88.0508 14.9609C88.5376 14.9609 88.9531 15.1304 89.2987 15.471C89.6444 15.8116 89.8164 16.2395 89.8164 16.7578V44.2318Z" fill="#231F20"/>
<path d="M94.0898 30.228C94.6789 28.8211 95.4822 27.5953 96.5029 26.5504C97.522 25.5072 98.7148 24.6812 100.081 24.074C101.446 23.4668 102.897 23.1641 104.435 23.1641C105.988 23.1641 107.444 23.4668 108.8 24.074C110.157 24.6812 111.342 25.5056 112.354 26.5504C113.367 27.5953 114.167 28.8195 114.754 30.228C115.344 31.6348 115.637 33.1404 115.637 34.7414C115.637 36.3425 115.344 37.8448 114.754 39.2434C114.165 40.6437 113.365 41.8695 112.354 42.921C111.342 43.9724 110.157 44.8017 108.8 45.4089C107.444 46.016 105.988 46.3188 104.435 46.3188C102.897 46.3188 101.446 46.016 100.081 45.4089C98.7164 44.8017 97.5237 43.9724 96.5029 42.921C95.4822 41.8695 94.6789 40.6437 94.0898 39.2434C93.5008 37.8448 93.207 36.3425 93.207 34.7414C93.207 33.1404 93.5008 31.6365 94.0898 30.228ZM97.3614 37.8003C97.7622 38.7547 98.3058 39.5922 98.9972 40.3129C99.6868 41.0336 100.5 41.603 101.433 42.0242C102.366 42.4454 103.367 42.656 104.434 42.656C105.516 42.656 106.524 42.4454 107.458 42.0242C108.392 41.603 109.205 41.0336 109.894 40.3129C110.584 39.5939 111.126 38.7563 111.519 37.8003C111.911 36.846 112.108 35.8258 112.108 34.7431C112.108 33.6423 111.911 32.6122 111.519 31.648C111.126 30.6854 110.586 29.8479 109.894 29.1354C109.203 28.4229 108.392 27.8618 107.458 27.4488C106.525 27.0358 105.516 26.8301 104.434 26.8301C103.366 26.8301 102.366 27.0358 101.433 27.4488C100.5 27.8618 99.6868 28.4229 98.9972 29.1354C98.3058 29.8479 97.7622 30.6854 97.3614 31.648C96.9605 32.6106 96.761 33.6423 96.761 34.7431C96.761 35.8274 96.9605 36.846 97.3614 37.8003Z" fill="#231F20"/>
<path d="M119.296 23.6622C119.634 23.315 120.052 23.1406 120.555 23.1406C121.041 23.1406 121.458 23.315 121.803 23.6622C122.147 24.0094 122.321 24.4422 122.321 24.9588V34.922C122.352 37.2816 122.874 39.1146 123.887 40.4244C124.9 41.7341 126.323 42.3874 128.158 42.3874C129.052 42.3874 129.888 42.2064 130.665 41.8427C131.443 41.4791 132.121 40.9822 132.702 40.352C133.283 39.7218 133.749 38.9698 134.102 38.0977C134.456 37.2256 134.648 36.2795 134.678 35.261V25.0082C134.678 24.4915 134.85 24.0588 135.193 23.7116C135.535 23.3644 135.949 23.19 136.433 23.19C136.916 23.19 137.333 23.3644 137.684 23.7116C138.034 24.0604 138.21 24.4932 138.21 25.0098V44.2319C138.21 44.7338 138.034 45.1633 137.684 45.5187C137.333 45.8741 136.908 46.0518 136.41 46.0518C135.91 46.0518 135.498 45.8724 135.17 45.5137C134.842 45.155 134.678 44.7239 134.678 44.2188V42.4104C133.768 43.5178 132.721 44.3981 131.537 45.0497C130.352 45.7013 129.101 46.0271 127.783 46.0271C126.418 46.0271 125.182 45.7606 124.077 45.2258C122.97 44.6927 122.026 43.9308 121.24 42.9452C120.455 41.9579 119.851 40.7814 119.427 39.4141C119.004 38.0467 118.793 36.5214 118.793 34.8397V24.9605C118.79 24.4421 118.958 24.0094 119.296 23.6622Z" fill="#231F20"/>
<path d="M163.983 44.2318C163.983 44.7337 163.811 45.1582 163.465 45.5054C163.119 45.8542 162.704 46.027 162.217 46.027C161.714 46.027 161.295 45.8526 160.958 45.5054C160.62 45.1582 160.451 44.7337 160.451 44.2318V43.1639C159.447 44.1347 158.29 44.8999 156.98 45.4577C155.671 46.0155 154.27 46.2952 152.779 46.2952C151.24 46.2952 149.79 45.9924 148.425 45.3853C147.06 44.7781 145.867 43.9537 144.847 42.9105C143.826 41.8673 143.023 40.6414 142.434 39.2329C141.845 37.8261 141.551 36.3287 141.551 34.7425C141.551 33.1415 141.845 31.6359 142.434 30.2291C143.023 28.8222 143.826 27.5963 144.847 26.5515C145.866 25.5083 147.059 24.6822 148.425 24.0751C149.79 23.4679 151.24 23.1651 152.779 23.1651C154.27 23.1651 155.669 23.4449 156.98 24.0027C158.29 24.5605 159.447 25.3256 160.451 26.2964V16.7578C160.451 16.2395 160.62 15.8116 160.958 15.471C161.295 15.1304 161.714 14.9609 162.217 14.9609C162.704 14.9609 163.119 15.1304 163.465 15.471C163.811 15.8116 163.983 16.2395 163.983 16.7578V44.2318ZM145.705 37.7998C146.106 38.7541 146.65 39.5916 147.341 40.3123C148.031 41.0331 148.844 41.5991 149.777 42.0104C150.71 42.4235 151.711 42.6291 152.777 42.6291C153.86 42.6291 154.867 42.4235 155.802 42.0104C156.735 41.5974 157.548 41.0314 158.238 40.3123C158.928 39.5933 159.47 38.7558 159.862 37.7998C160.255 36.8454 160.451 35.8252 160.451 34.7425C160.451 33.6417 160.255 32.6117 159.862 31.6474C159.47 30.6848 158.929 29.8473 158.238 29.1348C157.547 28.4223 156.735 27.8645 155.802 27.4598C154.869 27.055 153.86 26.8526 152.777 26.8526C151.709 26.8526 150.71 27.055 149.777 27.4598C148.844 27.8645 148.031 28.4223 147.341 29.1348C146.65 29.8473 146.106 30.6848 145.705 31.6474C145.304 32.61 145.105 33.6417 145.105 34.7425C145.106 35.8269 145.306 36.8454 145.705 37.7998Z" fill="#231F20"/>
<path d="M197.534 45.5076C197.196 45.8548 196.792 46.0292 196.322 46.0292C195.835 46.0292 195.411 45.8548 195.051 45.5076C194.691 45.1604 194.509 44.7359 194.509 44.234V31.2975C194.493 30.6509 194.368 30.0552 194.131 29.5139C193.896 28.9725 193.576 28.4986 193.175 28.0938C192.774 27.6891 192.31 27.3748 191.783 27.1477C191.255 26.9206 190.686 26.8087 190.072 26.8087C189.443 26.8087 188.834 26.9305 188.244 27.1724C187.654 27.4143 187.127 27.7467 186.663 28.1679C186.199 28.5891 185.829 29.0778 185.555 29.6356C185.279 30.1934 185.134 30.7809 185.118 31.3946V44.234C185.118 44.7359 184.946 45.1604 184.604 45.5076C184.261 45.8564 183.855 46.0292 183.388 46.0292C182.905 46.0292 182.484 45.8548 182.126 45.5076C181.767 45.1604 181.588 44.7359 181.588 44.234V31.2745C181.558 30.6426 181.428 30.0536 181.201 29.5023C180.973 28.9528 180.663 28.4789 180.271 28.0823C179.878 27.6858 179.419 27.3748 178.895 27.1477C178.369 26.9206 177.801 26.8087 177.187 26.8087C176.576 26.8087 175.978 26.9256 175.399 27.1609C174.818 27.3962 174.297 27.7154 173.833 28.1202C173.371 28.525 172.997 28.9988 172.715 29.5402C172.433 30.0832 172.275 30.6607 172.244 31.2761V44.2126C172.244 44.7145 172.076 45.144 171.738 45.4994C171.401 45.8548 170.988 46.0342 170.503 46.0342C170.016 46.0342 169.598 45.8564 169.244 45.501C168.89 45.1456 168.715 44.7178 168.715 44.2159V25.0086C168.715 24.492 168.887 24.0559 169.233 23.6989C169.578 23.3434 170.002 23.1657 170.503 23.1657C171.005 23.1657 171.422 23.3434 171.751 23.6956C172.081 24.0493 172.246 24.4837 172.246 24.9971V25.6964C172.921 24.9247 173.694 24.311 174.565 23.8519C175.436 23.3944 176.389 23.1641 177.424 23.1641C178.742 23.1641 179.923 23.4553 180.967 24.0378C182.01 24.6203 182.877 25.4052 183.568 26.3925C184.415 25.4052 185.443 24.6203 186.652 24.0378C187.859 23.4553 189.107 23.1641 190.394 23.1641C191.492 23.1641 192.503 23.378 193.43 23.8058C194.357 24.2336 195.157 24.8161 195.83 25.5516C196.505 26.2871 197.034 27.1477 197.419 28.1333C197.803 29.119 198.011 30.1704 198.042 31.2844V44.2307C198.04 44.7359 197.872 45.1604 197.534 45.5076Z" fill="#231F20"/>
<path d="M201.98 30.228C202.569 28.8211 203.373 27.5953 204.394 26.5504C205.413 25.5072 206.605 24.6812 207.972 24.074C209.337 23.4668 210.787 23.1641 212.326 23.1641C213.879 23.1641 215.334 23.4668 216.691 24.074C218.048 24.6812 219.232 25.5056 220.245 26.5504C221.258 27.5936 222.058 28.8195 222.645 30.228C223.233 31.6365 223.528 33.1404 223.528 34.7414C223.528 36.3425 223.234 37.8448 222.645 39.2434C222.056 40.6437 221.256 41.8695 220.245 42.921C219.232 43.9724 218.048 44.8017 216.691 45.4089C215.334 46.016 213.879 46.3188 212.326 46.3188C210.787 46.3188 209.337 46.016 207.972 45.4089C206.607 44.8017 205.414 43.9724 204.394 42.921C203.373 41.8695 202.569 40.6437 201.98 39.2434C201.391 37.8448 201.098 36.3425 201.098 34.7414C201.098 33.1404 201.391 31.6365 201.98 30.228ZM205.252 37.8003C205.653 38.7547 206.196 39.5922 206.888 40.3129C207.577 41.0336 208.39 41.603 209.324 42.0242C210.257 42.4454 211.258 42.656 212.324 42.656C213.406 42.656 214.414 42.4454 215.349 42.0242C216.282 41.603 217.095 41.0336 217.785 40.3129C218.474 39.5939 219.016 38.7563 219.409 37.8003C219.802 36.846 219.998 35.8258 219.998 34.7431C219.998 33.6423 219.802 32.6122 219.409 31.648C219.016 30.6854 218.476 29.8479 217.785 29.1354C217.093 28.4229 216.282 27.8618 215.349 27.4488C214.416 27.0358 213.406 26.8301 212.324 26.8301C211.256 26.8301 210.257 27.0358 209.324 27.4488C208.39 27.8618 207.577 28.4229 206.888 29.1354C206.196 29.8479 205.653 30.6854 205.252 31.648C204.851 32.6106 204.652 33.6423 204.652 34.7431C204.652 35.8274 204.851 36.846 205.252 37.8003Z" fill="#231F20"/>
<path d="M230.449 45.5168V45.5645V45.711C230.418 46.6653 230.23 47.572 229.884 48.4292C229.508 49.3326 228.993 50.1191 228.342 50.7855C227.692 51.4519 226.931 51.9785 226.059 52.3651C225.188 52.7502 224.258 52.9443 223.27 52.9443H223.081C222.58 52.9443 222.156 52.7749 221.811 52.4375C221.467 52.1002 221.293 51.6741 221.293 51.159C221.293 50.6457 221.467 50.2063 221.811 49.846C222.156 49.484 222.58 49.303 223.081 49.303H223.27C223.756 49.303 224.219 49.2092 224.659 49.0232C225.098 48.8373 225.483 48.5773 225.812 48.2466C226.142 47.9142 226.402 47.5308 226.59 47.0931C226.778 46.6719 226.887 46.2359 226.919 45.7834V45.711V25.0573C226.919 24.539 227.091 24.103 227.437 23.7475C227.781 23.3921 228.198 23.2128 228.685 23.2128C229.186 23.2128 229.607 23.3905 229.944 23.7475C230.282 24.103 230.45 24.5406 230.45 25.0573L230.449 45.5168ZM226.588 17.921C226.588 17.3221 226.788 16.8169 227.189 16.4039C227.589 15.9909 228.079 15.7852 228.659 15.7852C229.24 15.7852 229.73 15.9909 230.131 16.4039C230.532 16.8169 230.731 17.3221 230.731 17.921C230.731 18.5035 230.532 19.0054 230.131 19.4249C229.73 19.8462 229.24 20.0568 228.659 20.0568C228.078 20.0568 227.588 19.8462 227.189 19.4249C226.788 19.0054 226.588 18.5035 226.588 17.921Z" fill="#231F20"/>
<path d="M234.719 30.228C235.308 28.8211 236.111 27.5953 237.132 26.5504C238.151 25.5072 239.344 24.6812 240.71 24.074C242.075 23.4668 243.527 23.1641 245.064 23.1641C246.617 23.1641 248.073 23.4668 249.429 24.074C250.786 24.6812 251.971 25.5056 252.983 26.5504C253.996 27.5936 254.796 28.8195 255.383 30.228C255.972 31.6348 256.266 33.1404 256.266 34.7414C256.266 36.3425 255.972 37.8448 255.383 39.2434C254.794 40.6437 253.994 41.8695 252.983 42.921C251.971 43.9724 250.786 44.8017 249.429 45.4089C248.071 46.016 246.617 46.3188 245.064 46.3188C243.526 46.3188 242.075 46.016 240.71 45.4089C239.345 44.8017 238.153 43.9724 237.132 42.921C236.111 41.8695 235.308 40.6437 234.719 39.2434C234.13 37.8448 233.836 36.3425 233.836 34.7414C233.836 33.1404 234.13 31.6365 234.719 30.228ZM237.99 37.8003C238.391 38.7547 238.935 39.5922 239.626 40.3129C240.316 41.0336 241.129 41.603 242.062 42.0242C242.995 42.4454 243.996 42.656 245.062 42.656C246.145 42.656 247.153 42.4454 248.087 42.0242C249.02 41.603 249.833 41.0336 250.523 40.3129C251.213 39.5939 251.755 38.7563 252.147 37.8003C252.54 36.846 252.737 35.8258 252.737 34.7431C252.737 33.6423 252.54 32.6122 252.147 31.648C251.755 30.6854 251.213 29.8479 250.523 29.1354C249.832 28.4229 249.02 27.8618 248.087 27.4488C247.154 27.0358 246.146 26.8301 245.062 26.8301C243.995 26.8301 242.995 27.0358 242.062 27.4488C241.129 27.8618 240.316 28.4229 239.626 29.1354C238.935 29.8479 238.391 30.6854 237.99 31.648C237.589 32.6106 237.39 33.6423 237.39 34.7431C237.39 35.8274 237.591 36.846 237.99 37.8003Z" fill="#231F20"/>
<path d="M21.1971 22.3653C21.1971 20.8433 21.434 19.3772 21.869 18C15.0305 18.8408 9.73047 24.7447 9.73047 31.9056C9.73047 39.6442 15.9182 45.9183 23.5502 45.9183C29.5513 45.9183 34.6582 42.0383 36.5666 36.6165C36.1528 36.6544 35.7341 36.6758 35.3105 36.6758C27.5147 36.6758 21.1971 30.2684 21.1971 22.3653Z" fill="#013EE6"/>
<path d="M59.0787 31.3485C58.8467 25.1583 54.569 19.9308 48.8584 18.3594C49.2235 19.6313 49.4231 20.974 49.4231 22.366C49.4231 28.91 45.0887 34.4255 39.1736 36.1285C37.5654 41.8037 32.7571 45.9173 26.5742 45.9173H41.3205H45.2607C53.076 45.9189 59.379 39.3421 59.0787 31.3485Z" fill="#2E5CE6"/>
<path d="M35.5911 21.8698C38.259 19.2239 41.9768 17.6657 46.0517 17.8961C47.0172 17.9504 47.9552 18.11 48.8575 18.3584C47.1487 12.4052 41.7318 8.05469 35.3088 8.05469C29.0156 8.05469 23.6863 12.2324 21.8672 17.9997C22.4189 17.9323 22.9788 17.8928 23.5484 17.8928C31.1804 17.8928 37.3681 24.1669 37.3681 31.9054C37.3681 33.5591 37.0841 35.1436 36.5648 36.6163C37.4606 36.5357 38.332 36.3711 39.1726 36.1293C39.5508 34.7932 39.7536 33.3715 39.7536 31.8972C39.7536 27.9662 38.16 24.4153 35.5911 21.8698Z" fill="#3DE7FF"/>
<path d="M23.5484 17.8945C22.9788 17.8945 22.4189 17.934 21.8671 18.0015C21.4322 19.3771 21.1953 20.8432 21.1953 22.3669C21.1953 30.2699 27.5145 36.6773 35.3087 36.6773C35.7323 36.6773 36.151 36.6543 36.5648 36.6181C37.0825 35.1454 37.3681 33.5608 37.3681 31.9072C37.3681 24.1686 31.1804 17.8945 23.5484 17.8945Z" fill="#003FFF"/>
<path d="M49.4232 22.3665C49.4232 20.9744 49.2236 19.6317 48.8585 18.3598C47.9546 18.1113 47.0166 17.9517 46.0526 17.8974C41.9778 17.6671 38.26 19.2269 35.5938 21.8712V21.8728C38.161 24.4183 39.7546 27.9692 39.7546 31.8985C39.7546 33.3745 39.5517 34.7962 39.1736 36.1306C45.0887 34.4259 49.4232 28.9104 49.4232 22.3665Z" fill="#0054FF"/>
</svg>
