<?xml version="1.0" standalone="no"?>
<!DOCTYPE svg PUBLIC "-//W3C//DTD SVG 20010904//EN"
 "http://www.w3.org/TR/2001/REC-SVG-20010904/DTD/svg10.dtd">
<svg version="1.0" xmlns="http://www.w3.org/2000/svg"
 width="816.000000pt" height="816.000000pt" viewBox="0 0 816.000000 816.000000"
 preserveAspectRatio="xMidYMid meet">
<metadata>
Created by potrace 1.14, written by Peter Selinger 2001-2017
</metadata>
<g transform="translate(0.000000,816.000000) scale(0.100000,-0.100000)"
fill="#000000" stroke="none">
<path d="M4099 7106 c-2 -2 -34 -7 -70 -10 -64 -7 -100 -12 -149 -21 -14 -3
-38 -8 -55 -11 -16 -2 -38 -7 -47 -10 -9 -3 -26 -7 -37 -9 -185 -41 -498 -171
-637 -265 -25 -16 -47 -30 -49 -30 -9 0 -150 -103 -225 -164 -70 -57 -230
-212 -275 -267 -11 -13 -43 -53 -70 -89 -28 -36 -53 -66 -57 -68 -5 -2 -8 -10
-8 -17 0 -7 -3 -15 -8 -17 -10 -4 -112 -164 -112 -177 0 -5 -4 -11 -8 -13 -19
-8 -182 -377 -182 -413 0 -5 -10 -10 -22 -11 -32 -1 -115 -13 -168 -25 -25 -6
-56 -13 -70 -15 -52 -10 -244 -72 -300 -97 -25 -11 -49 -21 -55 -22 -14 -4
-169 -78 -175 -85 -3 -3 -23 -14 -45 -25 -22 -11 -44 -24 -50 -28 -5 -4 -46
-31 -90 -60 -44 -28 -88 -58 -98 -67 -10 -8 -27 -22 -37 -30 -10 -8 -35 -28
-56 -45 -58 -44 -263 -253 -309 -315 -22 -29 -47 -60 -55 -69 -14 -14 -72
-103 -132 -199 -9 -15 -27 -48 -40 -74 -13 -27 -26 -48 -30 -48 -5 0 -8 -5 -8
-11 0 -6 -14 -41 -31 -77 -28 -60 -87 -211 -93 -237 -2 -5 -9 -30 -16 -55 -7
-25 -14 -49 -16 -55 -1 -5 -9 -39 -18 -75 -8 -36 -18 -78 -20 -95 -3 -16 -8
-46 -12 -65 -27 -153 -32 -474 -9 -620 2 -14 7 -45 10 -70 9 -60 33 -177 45
-215 5 -16 11 -43 14 -59 16 -91 153 -403 242 -550 29 -49 151 -218 195 -272
79 -96 286 -290 383 -359 16 -11 34 -26 41 -32 8 -7 18 -13 22 -13 5 0 18 -8
29 -18 63 -58 419 -236 514 -257 8 -2 41 -13 73 -24 31 -11 57 -18 57 -15 0 3
8 0 19 -5 10 -6 33 -13 52 -16 19 -3 54 -11 79 -16 222 -50 556 -58 790 -19
30 5 75 12 99 15 23 4 54 10 68 16 13 5 38 11 56 14 91 17 366 121 473 181 27
15 65 36 84 47 67 37 206 132 285 196 72 57 259 239 310 301 93 114 235 322
235 346 0 8 3 14 8 14 11 0 127 246 134 285 5 30 25 47 63 51 101 11 156 20
245 40 36 8 76 17 89 20 14 3 28 7 33 10 13 8 10 -6 -22 -101 -17 -50 -32 -94
-33 -100 -2 -5 -17 -41 -35 -80 -18 -38 -32 -74 -31 -79 0 -5 -3 -12 -8 -15
-4 -3 -16 -22 -25 -41 -212 -429 -628 -814 -1068 -990 -30 -12 -64 -26 -75
-30 -11 -5 -54 -18 -95 -30 -41 -12 -86 -25 -100 -30 -22 -8 -54 -15 -155 -34
-43 -8 -131 -19 -162 -20 -17 -1 -29 -4 -27 -7 4 -8 3041 -4 3070 4 12 3 45 8
75 12 75 9 191 33 274 56 39 11 77 22 85 24 170 40 506 213 685 353 6 4 24 18
40 31 67 51 261 231 250 231 -2 0 11 15 28 33 53 54 147 170 147 180 0 3 11
18 25 33 14 15 25 33 25 40 0 8 4 14 8 14 5 0 16 15 26 33 9 17 28 50 41 72
13 22 32 57 41 77 9 21 20 38 24 38 4 0 11 11 14 24 3 14 19 53 35 88 27 59
70 170 75 193 2 6 13 42 25 80 12 39 24 84 26 100 2 17 8 48 14 70 15 63 25
130 37 240 13 127 7 434 -11 526 -3 13 -7 41 -10 64 -4 22 -11 58 -16 79 -6
22 -12 49 -14 60 -1 12 -5 28 -8 36 -4 8 -13 40 -21 70 -31 123 -124 342 -206
485 -26 47 -106 171 -120 188 -6 7 -27 35 -47 62 -21 28 -49 63 -63 80 -31 36
-180 195 -180 191 0 -1 -19 16 -43 39 -60 57 -256 202 -350 258 -120 73 -293
152 -429 197 -125 42 -140 50 -144 72 -11 71 -127 342 -198 461 -25 43 -46 83
-46 88 0 5 -4 9 -9 9 -5 0 -14 14 -21 30 -7 17 -15 30 -19 30 -3 0 -17 18 -31
40 -14 22 -28 40 -32 40 -5 0 -8 5 -8 11 0 14 -75 103 -175 207 -44 46 -81 88
-83 93 -2 5 -8 9 -13 9 -6 0 -20 10 -33 23 -72 69 -251 201 -351 260 -63 36
-292 147 -312 151 -11 3 -29 9 -39 14 -19 10 -49 21 -59 22 -3 0 -19 7 -35 15
-16 8 -32 15 -35 15 -3 0 -6 0 -7 1 -2 0 -10 2 -18 4 -8 1 -53 13 -100 25 -99
26 -105 27 -188 40 -34 6 -77 13 -95 16 -40 6 -462 16 -468 10z"/>
</g>
</svg>
