<?xml version="1.0" encoding="UTF-8"?>
<svg id="Layer_11" xmlns="http://www.w3.org/2000/svg" viewBox="0 0 169.89 24.11">
  <path d="M14.19,12.46c-.09-1.93-.2-4.26-.18-6.27h-.07c-.49,1.82-1.11,3.83-1.77,5.72l-2.17,6.47h-2.11l-2-6.38c-.58-1.91-1.11-3.95-1.51-5.81h-.04c-.07,1.95-.16,4.32-.27,6.36l-.33,6.01H1.2l1-14.94h3.59l1.95,6.01c.53,1.75,1,3.52,1.38,5.19h.07c.4-1.62.91-3.46,1.49-5.21l2.06-5.99h3.55l.87,14.94h-2.66l-.29-6.1Z"/>
  <path d="M25.97,18.56l-.18-1.2h-.07c-.67.84-1.8,1.44-3.19,1.44-2.17,0-3.39-1.57-3.39-3.21,0-2.73,2.42-4.1,6.41-4.08v-.18c0-.71-.29-1.88-2.2-1.88-1.06,0-2.17.33-2.9.8l-.53-1.77c.8-.49,2.2-.95,3.9-.95,3.46,0,4.46,2.19,4.46,4.54v3.9c0,.98.04,1.93.16,2.59h-2.46ZM25.61,13.29c-1.93-.04-3.77.38-3.77,2.02,0,1.06.69,1.55,1.55,1.55,1.09,0,1.88-.71,2.13-1.49.07-.2.09-.42.09-.6v-1.49Z"/>
  <path d="M31.16,10.98c0-1.24-.02-2.28-.09-3.21h2.39l.13,1.62h.07c.47-.84,1.64-1.86,3.44-1.86,1.88,0,3.83,1.22,3.83,4.63v6.41h-2.73v-6.1c0-1.55-.58-2.73-2.06-2.73-1.09,0-1.84.78-2.13,1.6-.09.24-.11.58-.11.89v6.34h-2.75v-7.58Z"/>
  <path d="M53.79,2.82v12.7c0,1.11.04,2.31.09,3.04h-2.44l-.11-1.71h-.04c-.64,1.2-1.95,1.95-3.53,1.95-2.57,0-4.61-2.2-4.61-5.52-.02-3.61,2.24-5.76,4.83-5.76,1.49,0,2.55.62,3.04,1.42h.04V2.82h2.73ZM51.07,12.26c0-.22-.02-.49-.07-.71-.24-1.06-1.11-1.93-2.35-1.93-1.75,0-2.73,1.55-2.73,3.57s.98,3.41,2.71,3.41c1.11,0,2.08-.75,2.35-1.93.07-.24.09-.51.09-.8v-1.62Z"/>
  <path d="M62.8,18.56l-.18-1.2h-.07c-.67.84-1.8,1.44-3.19,1.44-2.17,0-3.39-1.57-3.39-3.21,0-2.73,2.42-4.1,6.41-4.08v-.18c0-.71-.29-1.88-2.2-1.88-1.06,0-2.17.33-2.9.8l-.53-1.77c.8-.49,2.2-.95,3.9-.95,3.46,0,4.46,2.19,4.46,4.54v3.9c0,.98.04,1.93.16,2.59h-2.46ZM62.44,13.29c-1.93-.04-3.77.38-3.77,2.02,0,1.06.69,1.55,1.55,1.55,1.09,0,1.88-.71,2.13-1.49.07-.2.09-.42.09-.6v-1.49Z"/>
  <path d="M70.98,4.68v3.08h2.59v2.04h-2.59v4.77c0,1.31.35,2,1.4,2,.47,0,.82-.07,1.06-.13l.04,2.08c-.4.16-1.11.27-1.97.27-1,0-1.84-.33-2.35-.89-.58-.62-.84-1.6-.84-3.02v-5.08h-1.55v-2.04h1.55v-2.44l2.66-.64Z"/>
  <path d="M77.44,13.93c.07,1.95,1.6,2.79,3.33,2.79,1.26,0,2.17-.18,2.99-.49l.4,1.88c-.93.38-2.22.67-3.77.67-3.5,0-5.56-2.15-5.56-5.45,0-2.99,1.82-5.81,5.28-5.81s4.66,2.88,4.66,5.25c0,.51-.04.91-.09,1.15h-7.23ZM82.18,12.02c.02-1-.42-2.64-2.24-2.64-1.68,0-2.39,1.53-2.5,2.64h4.74Z"/>
  <path d="M102.36,18.12c-.64.33-2.06.67-3.86.67-4.74,0-7.63-2.97-7.63-7.52,0-4.92,3.42-7.89,7.98-7.89,1.8,0,3.08.38,3.64.67l-.6,2.17c-.71-.31-1.69-.58-2.93-.58-3.04,0-5.23,1.91-5.23,5.5,0,3.28,1.93,5.39,5.21,5.39,1.11,0,2.26-.22,2.97-.55l.44,2.15Z"/>
  <path d="M104.51,11.25c0-1.46-.02-2.5-.09-3.48h2.37l.09,2.06h.09c.53-1.53,1.8-2.31,2.95-2.31.27,0,.42.02.64.07v2.57c-.22-.04-.46-.09-.8-.09-1.31,0-2.2.84-2.44,2.06-.04.24-.09.53-.09.84v5.59h-2.73v-7.32Z"/>
  <path d="M114.14,13.93c.07,1.95,1.6,2.79,3.33,2.79,1.26,0,2.17-.18,2.99-.49l.4,1.88c-.93.38-2.22.67-3.77.67-3.5,0-5.56-2.15-5.56-5.45,0-2.99,1.82-5.81,5.28-5.81s4.66,2.88,4.66,5.25c0,.51-.04.91-.09,1.15h-7.23ZM118.88,12.02c.02-1-.42-2.64-2.24-2.64-1.68,0-2.39,1.53-2.5,2.64h4.74Z"/>
  <path d="M129.72,18.56l-.18-1.2h-.07c-.67.84-1.8,1.44-3.19,1.44-2.17,0-3.39-1.57-3.39-3.21,0-2.73,2.42-4.1,6.41-4.08v-.18c0-.71-.29-1.88-2.2-1.88-1.06,0-2.17.33-2.9.8l-.53-1.77c.8-.49,2.2-.95,3.9-.95,3.46,0,4.46,2.19,4.46,4.54v3.9c0,.98.04,1.93.16,2.59h-2.46ZM129.37,13.29c-1.93-.04-3.77.38-3.77,2.02,0,1.06.69,1.55,1.55,1.55,1.09,0,1.88-.71,2.13-1.49.07-.2.09-.42.09-.6v-1.49Z"/>
  <path d="M137.91,4.68v3.08h2.59v2.04h-2.59v4.77c0,1.31.35,2,1.4,2,.47,0,.82-.07,1.06-.13l.04,2.08c-.4.16-1.11.27-1.97.27-1,0-1.84-.33-2.35-.89-.58-.62-.84-1.6-.84-3.02v-5.08h-1.55v-2.04h1.55v-2.44l2.66-.64Z"/>
  <path d="M144.36,13.93c.07,1.95,1.6,2.79,3.33,2.79,1.26,0,2.17-.18,2.99-.49l.4,1.88c-.93.38-2.22.67-3.77.67-3.5,0-5.56-2.15-5.56-5.45,0-2.99,1.82-5.81,5.28-5.81s4.66,2.88,4.66,5.25c0,.51-.04.91-.09,1.15h-7.23ZM149.11,12.02c.02-1-.42-2.64-2.24-2.64-1.68,0-2.39,1.53-2.5,2.64h4.74Z"/>
  <path d="M163.83,2.82v12.7c0,1.11.04,2.31.09,3.04h-2.44l-.11-1.71h-.04c-.64,1.2-1.95,1.95-3.53,1.95-2.57,0-4.61-2.2-4.61-5.52-.02-3.61,2.24-5.76,4.83-5.76,1.49,0,2.55.62,3.04,1.42h.04V2.82h2.73ZM161.1,12.26c0-.22-.02-.49-.07-.71-.24-1.06-1.11-1.93-2.35-1.93-1.75,0-2.73,1.55-2.73,3.57s.97,3.41,2.7,3.41c1.11,0,2.08-.75,2.35-1.93.07-.24.09-.51.09-.8v-1.62Z"/>
</svg>