<?xml version="1.0" encoding="UTF-8"?>
<svg id="Layer_7" xmlns="http://www.w3.org/2000/svg" viewBox="0 0 82.82 32.47">
  <defs>
    <style>
      .cls-1 {
        fill: #231f20;
      }
    </style>
  </defs>
  <path class="cls-1" d="M13.23,11.94l-1.68,1.09-.48-.81,2.37-1.61h.88v9.62h-1.09v-8.29Z"/>
  <path class="cls-1" d="M16.47,15.42c0-2.91,1.65-4.97,4.01-4.97s3.99,2.06,3.99,4.97-1.65,4.99-3.99,4.99-4.01-2.06-4.01-4.99ZM23.37,15.42c0-2.33-1.19-3.96-2.88-3.96s-2.9,1.64-2.9,3.96,1.21,3.98,2.9,3.98,2.88-1.65,2.88-3.98Z"/>
  <path class="cls-1" d="M26.12,15.42c0-2.91,1.65-4.97,4.01-4.97s3.99,2.06,3.99,4.97-1.65,4.99-3.99,4.99-4.01-2.06-4.01-4.99ZM33.01,15.42c0-2.33-1.19-3.96-2.88-3.96s-2.9,1.64-2.9,3.96,1.21,3.98,2.9,3.98,2.88-1.65,2.88-3.98Z"/>
  <path class="cls-1" d="M36.05,21.71c.38-.43.62-.87.73-1.3-.42,0-.76-.35-.76-.77,0-.39.32-.74.77-.74.53,0,.85.48.85,1.12,0,.56-.24,1.04-1.08,2.09l-.52-.39Z"/>
  <path class="cls-1" d="M39.46,15.42c0-2.91,1.65-4.97,4.01-4.97s3.99,2.06,3.99,4.97-1.65,4.99-3.99,4.99-4.01-2.06-4.01-4.99ZM46.35,15.42c0-2.33-1.19-3.96-2.88-3.96s-2.9,1.64-2.9,3.96,1.21,3.98,2.9,3.98,2.88-1.65,2.88-3.98Z"/>
  <path class="cls-1" d="M49.11,15.42c0-2.91,1.65-4.97,4.01-4.97s3.99,2.06,3.99,4.97-1.65,4.99-3.99,4.99-4.01-2.06-4.01-4.99ZM56,15.42c0-2.33-1.19-3.96-2.88-3.96s-2.9,1.64-2.9,3.96,1.21,3.98,2.9,3.98,2.88-1.65,2.88-3.98Z"/>
  <path class="cls-1" d="M58.75,15.42c0-2.91,1.65-4.97,4.01-4.97s3.99,2.06,3.99,4.97-1.65,4.99-3.99,4.99-4.01-2.06-4.01-4.99ZM65.65,15.42c0-2.33-1.19-3.96-2.88-3.96s-2.9,1.64-2.9,3.96,1.21,3.98,2.9,3.98,2.88-1.65,2.88-3.98Z"/>
</svg>