<?xml version="1.0" encoding="UTF-8"?>
<svg id="Layer_7" xmlns="http://www.w3.org/2000/svg" viewBox="0 0 124.49 35.49">
  <defs>
    <style>
      .cls-1 {
        fill: #231f20;
      }
    </style>
  </defs>
  <path class="cls-1" d="M16.53,20.75l.69-.85c.81.81,1.81,1.39,3.15,1.39,1.48,0,2.24-.81,2.24-1.68,0-1.02-.91-1.43-2.59-1.82-1.93-.45-3.15-1.05-3.15-2.72,0-1.54,1.37-2.75,3.22-2.75,1.43,0,2.49.56,3.38,1.37l-.67.85c-.8-.77-1.75-1.23-2.76-1.23-1.19,0-2.06.78-2.06,1.67,0,.99.95,1.34,2.59,1.74,1.83.43,3.15,1.09,3.15,2.79,0,1.53-1.15,2.77-3.39,2.77-1.58,0-2.83-.57-3.8-1.53Z"/>
  <path class="cls-1" d="M31.69,17.51v4.61h-1.05v-4.47c0-1.18-.74-2-1.81-2-1.22,0-2.24.85-2.24,1.86v4.61h-1.05v-9.79h1.05v3.71c.42-.77,1.36-1.33,2.38-1.33,1.6,0,2.72,1.16,2.72,2.8Z"/>
  <path class="cls-1" d="M39.97,14.88v7.24h-1.05v-1.16c-.42.77-1.36,1.33-2.38,1.33-1.6,0-2.72-1.16-2.72-2.8v-4.61h1.05v4.47c0,1.18.74,2,1.81,2,1.22,0,2.24-.85,2.24-1.86v-4.61h1.05Z"/>
  <path class="cls-1" d="M49.22,18.49c0,2.23-1.43,3.8-3.33,3.8-1.16,0-2.09-.57-2.63-1.53v1.36h-1.05v-9.79h1.05v3.91c.55-.95,1.47-1.53,2.63-1.53,1.91,0,3.33,1.57,3.33,3.78ZM48.11,18.49c0-1.67-1.01-2.84-2.42-2.84s-2.44,1.18-2.44,2.84,1.01,2.86,2.44,2.86,2.42-1.19,2.42-2.86Z"/>
  <path class="cls-1" d="M57.2,17.51v4.61h-1.05v-4.47c0-1.18-.74-2-1.81-2-1.22,0-2.24.85-2.24,1.86v4.61h-1.05v-9.79h1.05v3.71c.42-.77,1.36-1.33,2.38-1.33,1.6,0,2.72,1.16,2.72,2.8Z"/>
  <path class="cls-1" d="M65.21,17.71v4.41h-1.05v-1.13c-.52.85-1.6,1.3-2.55,1.3-1.53,0-2.65-.88-2.65-2.31s1.29-2.41,2.84-2.41c.78,0,1.61.17,2.35.41v-.27c0-.98-.39-2.1-1.96-2.1-.73,0-1.46.32-2.12.66l-.42-.85c1.04-.52,1.91-.7,2.61-.7,1.98,0,2.94,1.25,2.94,3ZM64.16,19.85v-1.11c-.66-.18-1.4-.29-2.19-.29-1.08,0-1.99.62-1.99,1.48s.79,1.43,1.81,1.43c.95,0,2.09-.49,2.37-1.51Z"/>
  <path class="cls-1" d="M73.51,17.51v4.61h-1.05v-4.47c0-1.18-.74-2-1.81-2-1.22,0-2.24.85-2.24,1.86v4.61h-1.05v-7.24h1.05v1.16c.42-.77,1.36-1.33,2.38-1.33,1.6,0,2.72,1.16,2.72,2.8Z"/>
  <path class="cls-1" d="M75.45,12.86c0-.36.31-.69.7-.69s.69.32.69.69-.31.7-.69.7-.7-.32-.7-.7ZM75.62,14.88h1.05v7.24h-1.05v-7.24Z"/>
  <path class="cls-1" d="M82.42,20.75l.69-.85c.81.81,1.81,1.39,3.15,1.39,1.48,0,2.24-.81,2.24-1.68,0-1.02-.91-1.43-2.59-1.82-1.93-.45-3.15-1.05-3.15-2.72,0-1.54,1.37-2.75,3.22-2.75,1.43,0,2.49.56,3.38,1.37l-.67.85c-.8-.77-1.75-1.23-2.76-1.23-1.19,0-2.06.78-2.06,1.67,0,.99.95,1.34,2.59,1.74,1.83.43,3.15,1.09,3.15,2.79,0,1.53-1.15,2.77-3.39,2.77-1.58,0-2.83-.57-3.8-1.53Z"/>
  <path class="cls-1" d="M96.97,20.48l.64.69c-.63.69-1.91,1.12-2.91,1.12-1.93,0-3.67-1.58-3.67-3.81s1.62-3.77,3.57-3.77c2.19,0,3.43,1.65,3.43,4.19h-5.92c.15,1.41,1.15,2.45,2.58,2.45.85,0,1.83-.38,2.28-.87ZM92.13,17.96h4.88c-.14-1.3-.91-2.31-2.35-2.31-1.29,0-2.33.91-2.52,2.31Z"/>
  <path class="cls-1" d="M103.45,21.82c-.38.29-.85.46-1.34.46-1.04,0-1.76-.77-1.76-1.85v-4.62h-1.13v-.94h1.13v-1.99h1.05v1.99h1.78v.94h-1.78v4.62c0,.53.36.91.79.91.32,0,.6-.13.76-.29l.52.77Z"/>
  <path class="cls-1" d="M111.1,17.51v4.61h-1.05v-4.47c0-1.18-.74-2-1.81-2-1.22,0-2.24.85-2.24,1.86v4.61h-1.05v-9.79h1.05v3.71c.42-.77,1.36-1.33,2.38-1.33,1.6,0,2.72,1.16,2.72,2.8Z"/>
  <path class="cls-1" d="M113.04,12.86c0-.36.31-.69.7-.69s.69.32.69.69-.31.7-.69.7-.7-.32-.7-.7ZM113.21,14.88h1.05v7.24h-1.05v-7.24Z"/>
</svg>