<?xml version="1.0" encoding="UTF-8"?>
<svg id="Layer_10" xmlns="http://www.w3.org/2000/svg" viewBox="0 0 120.85 122.32">
  <defs>
    <style>
      .cls-1 {
        fill: #f16522;
      }

      .cls-2 {
        fill: #098f5f;
      }
    </style>
  </defs>
  <path class="cls-2" d="M119.87.46c1.04.76,1.29,2.22.55,3.28L41.76,118.02c-3.62,5.26-11.36,5.35-15.1.17L.65,73.31c-2.1-4.19,1.26-6.91,5.03-3.77l25.53,21.88c1.37,1.18,3.44,1.02,4.62-.35L116.68.79c.82-.92,2.2-1.06,3.19-.33"/>
  <path class="cls-1" d="M112.13,24.96c-.66,0-1.27.32-1.64.87l-63.77,92.84c-.76,1.08-1.91,2.81-3.9,3.61l4.32.05h2.9c3.8.04,7.36-1.89,9.39-5.11l4.39-6.94L113.83,27.99c.81-1.33-.15-3.03-1.7-3.03Z"/>
</svg>