<svg width="1134" height="260" viewBox="0 0 1134 260" fill="none" xmlns="http://www.w3.org/2000/svg">
<path d="M285.487 148.092L285.688 148.296C285.688 152.574 286.476 156.691 288.047 160.66C289.617 164.63 291.789 168.144 294.569 171.216C297.343 174.287 300.642 176.77 304.453 178.664C308.264 180.564 312.38 181.546 316.793 181.609C320.874 181.68 324.754 181.076 328.427 179.8C332.107 178.524 335.586 176.405 338.858 173.439C339.66 172.815 340.497 172.218 341.368 171.629C342.24 171.047 343.174 170.633 344.177 170.388C345.179 170.15 346.231 170.15 347.338 170.388C348.444 170.633 349.592 171.3 350.796 172.408C352.47 173.923 353.272 175.802 353.203 178.047C353.134 180.291 352.235 182.339 350.492 184.204C346.48 188.483 341.61 191.737 335.897 193.981C330.177 196.218 324.242 197.34 318.093 197.34C311.474 197.34 305.269 196.085 299.487 193.567C293.698 191.049 288.634 187.585 284.291 183.173C279.94 178.762 276.516 173.607 274.005 167.709C271.495 161.811 270.243 155.449 270.243 148.625L270.443 148.212C270.374 148.142 270.346 148.071 270.346 148.008L270.243 147.903C270.243 141.079 271.495 134.662 274.005 128.665C276.516 122.669 279.94 117.444 284.291 112.99C288.634 108.544 293.705 105.023 299.487 102.442C305.269 99.8544 311.474 98.564 318.093 98.564C324.311 98.564 330.267 99.6861 335.952 101.923C341.638 104.168 346.487 107.422 350.499 111.7C352.235 113.566 353.141 115.628 353.21 117.907C353.272 120.179 352.47 122.08 350.803 123.595C349.599 124.696 348.444 125.369 347.344 125.615C346.238 125.86 345.186 125.86 344.183 125.615C343.181 125.376 342.247 124.941 341.375 124.324C340.504 123.7 339.667 123.083 338.864 122.459C335.655 119.562 332.19 117.458 328.482 116.147C324.768 114.835 320.874 114.218 316.793 114.288C312.442 114.358 308.382 115.319 304.605 117.184C300.829 119.05 297.53 121.526 294.721 124.633C291.913 127.74 289.707 131.288 288.102 135.286C286.497 139.284 285.695 143.457 285.695 147.805C285.688 147.847 285.626 147.952 285.487 148.092Z" fill="#231F20"/>
<path d="M382.794 188.544C382.794 190.683 382.06 192.493 380.587 193.973C379.114 195.459 377.343 196.196 375.268 196.196C373.193 196.196 371.422 195.452 369.949 193.973C368.476 192.493 367.743 190.683 367.743 188.544V71.4418C367.743 69.2326 368.476 67.4091 369.949 65.9573C371.422 64.5056 373.193 63.7832 375.268 63.7832C377.343 63.7832 379.114 64.5056 380.587 65.9573C382.06 67.4091 382.794 69.2326 382.794 71.4418V188.544Z" fill="#231F20"/>
<path d="M401.009 128.856C403.519 122.86 406.943 117.635 411.294 113.181C415.638 108.735 420.722 105.214 426.545 102.626C432.363 100.038 438.546 98.7476 445.103 98.7476C451.723 98.7476 457.927 100.038 463.71 102.626C469.492 105.214 474.541 108.728 478.857 113.181C483.173 117.635 486.584 122.853 489.087 128.856C491.598 134.852 492.85 141.27 492.85 148.094C492.85 154.918 491.598 161.321 489.087 167.282C486.577 173.251 483.167 178.476 478.857 182.957C474.541 187.439 469.492 190.973 463.71 193.561C457.927 196.149 451.723 197.44 445.103 197.44C438.546 197.44 432.363 196.149 426.545 193.561C420.728 190.973 415.645 187.439 411.294 182.957C406.943 178.476 403.519 173.251 401.009 167.282C398.498 161.321 397.246 154.918 397.246 148.094C397.246 141.27 398.498 134.859 401.009 128.856ZM414.953 161.132C416.661 165.199 418.978 168.769 421.925 171.841C424.865 174.913 428.33 177.339 432.307 179.135C436.284 180.93 440.552 181.828 445.096 181.828C449.71 181.828 454.005 180.93 457.989 179.135C461.967 177.339 465.432 174.913 468.372 171.841C471.311 168.776 473.621 165.206 475.295 161.132C476.969 157.064 477.806 152.716 477.806 148.101C477.806 143.409 476.969 139.018 475.295 134.909C473.621 130.806 471.318 127.236 468.372 124.199C465.425 121.162 461.967 118.771 457.989 117.01C454.012 115.25 449.71 114.373 445.096 114.373C440.545 114.373 436.284 115.25 432.307 117.01C428.33 118.771 424.865 121.162 421.925 124.199C418.978 127.236 416.661 130.806 414.953 134.909C413.244 139.011 412.394 143.409 412.394 148.101C412.394 152.723 413.244 157.064 414.953 161.132Z" fill="#231F20"/>
<path d="M508.445 100.871C509.884 99.3909 511.668 98.6475 513.812 98.6475C515.881 98.6475 517.658 99.3909 519.131 100.871C520.598 102.351 521.338 104.195 521.338 106.397V148.863C521.469 158.92 523.697 166.733 528.013 172.316C532.329 177.899 538.395 180.683 546.218 180.683C550.029 180.683 553.591 179.911 556.904 178.362C560.217 176.812 563.109 174.694 565.585 172.007C568.061 169.321 570.046 166.116 571.554 162.399C573.062 158.682 573.878 154.649 574.009 150.308V106.608C574.009 104.405 574.743 102.561 576.202 101.081C577.662 99.6013 579.425 98.8579 581.487 98.8579C583.548 98.8579 585.325 99.6013 586.819 101.081C588.313 102.568 589.06 104.412 589.06 106.615V188.545C589.06 190.684 588.313 192.515 586.819 194.029C585.325 195.544 583.513 196.302 581.39 196.302C579.259 196.302 577.503 195.537 576.105 194.008C574.708 192.479 574.009 190.642 574.009 188.489V180.781C570.129 185.501 565.668 189.253 560.619 192.031C555.569 194.808 550.236 196.197 544.62 196.197C538.803 196.197 533.532 195.06 528.822 192.781C524.105 190.509 520.079 187.262 516.731 183.061C513.384 178.852 510.811 173.838 509.005 168.01C507.2 162.182 506.301 155.68 506.301 148.513V106.404C506.287 104.195 507.006 102.351 508.445 100.871Z" fill="#231F20"/>
<path d="M698.912 188.544C698.912 190.683 698.179 192.493 696.706 193.973C695.232 195.459 693.462 196.196 691.387 196.196C689.242 196.196 687.458 195.452 686.019 193.973C684.581 192.493 683.861 190.683 683.861 188.544V183.993C679.58 188.13 674.648 191.392 669.066 193.769C663.484 196.147 657.515 197.339 651.159 197.339C644.601 197.339 638.418 196.049 632.601 193.461C626.784 190.873 621.7 187.359 617.349 182.912C612.998 178.466 609.575 173.241 607.064 167.238C604.553 161.241 603.301 154.859 603.301 148.098C603.301 141.274 604.553 134.857 607.064 128.86C609.575 122.864 612.998 117.639 617.349 113.185C621.693 108.739 626.777 105.218 632.601 102.63C638.418 100.042 644.601 98.7519 651.159 98.7519C657.515 98.7519 663.477 99.9442 669.066 102.322C674.648 104.699 679.58 107.96 683.861 112.098V71.4418C683.861 69.2326 684.581 67.4091 686.019 65.9573C687.458 64.5056 689.242 63.7832 691.387 63.7832C693.462 63.7832 695.232 64.5056 696.706 65.9573C698.179 67.4091 698.912 69.2326 698.912 71.4418V188.544ZM621.008 161.129C622.717 165.197 625.034 168.766 627.98 171.838C630.92 174.91 634.385 177.323 638.362 179.076C642.34 180.837 646.607 181.713 651.152 181.713C655.765 181.713 660.06 180.837 664.045 179.076C668.022 177.316 671.487 174.903 674.427 171.838C677.366 168.773 679.677 165.204 681.35 161.129C683.024 157.061 683.861 152.713 683.861 148.098C683.861 143.406 683.024 139.016 681.35 134.906C679.677 130.803 677.373 127.233 674.427 124.196C671.48 121.16 668.022 118.782 664.045 117.057C660.067 115.332 655.765 114.469 651.152 114.469C646.6 114.469 642.34 115.332 638.362 117.057C634.385 118.782 630.92 121.16 627.98 124.196C625.034 127.233 622.717 130.803 621.008 134.906C619.3 139.009 618.449 143.406 618.449 148.098C618.456 152.72 619.307 157.061 621.008 161.129Z" fill="#231F20"/>
<path d="M841.901 193.982C840.463 195.462 838.74 196.205 836.735 196.205C834.66 196.205 832.854 195.462 831.319 193.982C829.783 192.502 829.008 190.693 829.008 188.554V133.415C828.939 130.658 828.407 128.12 827.397 125.812C826.394 123.505 825.031 121.485 823.323 119.76C821.614 118.034 819.636 116.695 817.388 115.727C815.14 114.759 812.712 114.282 810.098 114.282C807.414 114.282 804.82 114.801 802.303 115.832C799.792 116.863 797.544 118.28 795.566 120.075C793.587 121.871 792.01 123.954 790.842 126.331C789.666 128.709 789.05 131.212 788.981 133.828V188.554C788.981 190.693 788.248 192.502 786.788 193.982C785.329 195.469 783.6 196.205 781.607 196.205C779.546 196.205 777.755 195.462 776.226 193.982C774.698 192.502 773.937 190.693 773.937 188.554V133.316C773.805 130.623 773.252 128.113 772.284 125.763C771.315 123.421 769.994 121.401 768.32 119.711C766.646 118.02 764.689 116.695 762.455 115.727C760.214 114.759 757.793 114.282 755.178 114.282C752.571 114.282 750.025 114.78 747.556 115.783C745.08 116.786 742.859 118.147 740.881 119.872C738.91 121.597 737.319 123.617 736.116 125.924C734.912 128.239 734.241 130.701 734.11 133.324V188.463C734.11 190.602 733.39 192.432 731.952 193.947C730.513 195.462 728.756 196.227 726.688 196.227C724.613 196.227 722.828 195.469 721.321 193.954C719.813 192.439 719.066 190.616 719.066 188.477V106.61C719.066 104.407 719.799 102.549 721.272 101.027C722.745 99.512 724.551 98.7546 726.688 98.7546C728.825 98.7546 730.603 99.512 732.007 101.013C733.411 102.521 734.117 104.372 734.117 106.56V109.541C736.994 106.252 740.286 103.636 744.001 101.679C747.715 99.7294 751.775 98.7476 756.188 98.7476C761.805 98.7476 766.84 99.9889 771.288 102.472C775.735 104.954 779.429 108.3 782.375 112.508C785.986 108.3 790.364 104.954 795.517 102.472C800.663 99.9889 805.982 98.7476 811.467 98.7476C816.15 98.7476 820.459 99.6593 824.409 101.483C828.358 103.306 831.768 105.789 834.639 108.924C837.516 112.059 839.771 115.727 841.41 119.928C843.05 124.129 843.935 128.611 844.066 133.359V188.54C844.059 190.693 843.34 192.502 841.901 193.982Z" fill="#231F20"/>
<path d="M860.87 128.856C863.381 122.86 866.805 117.635 871.156 113.181C875.499 108.735 880.583 105.214 886.407 102.626C892.224 100.038 898.408 98.7476 904.965 98.7476C911.584 98.7476 917.789 100.038 923.571 102.626C929.354 105.214 934.403 108.728 938.719 113.181C943.035 117.628 946.445 122.853 948.949 128.856C951.453 134.859 952.712 141.27 952.712 148.094C952.712 154.918 951.46 161.321 948.949 167.282C946.438 173.251 943.028 178.476 938.719 182.957C934.403 187.439 929.354 190.973 923.571 193.561C917.789 196.149 911.584 197.44 904.965 197.44C898.408 197.44 892.224 196.149 886.407 193.561C880.59 190.973 875.506 187.439 871.156 182.957C866.805 178.476 863.381 173.251 860.87 167.282C858.359 161.321 857.107 154.918 857.107 148.094C857.107 141.27 858.359 134.859 860.87 128.856ZM874.814 161.132C876.523 165.199 878.84 168.769 881.787 171.841C884.726 174.913 888.192 177.339 892.169 179.135C896.146 180.93 900.414 181.828 904.958 181.828C909.572 181.828 913.867 180.93 917.851 179.135C921.828 177.339 925.293 174.913 928.233 171.841C931.173 168.776 933.483 165.206 935.157 161.132C936.831 157.064 937.668 152.716 937.668 148.101C937.668 143.409 936.831 139.018 935.157 134.909C933.483 130.806 931.18 127.236 928.233 124.199C925.287 121.162 921.828 118.771 917.851 117.01C913.874 115.25 909.572 114.373 904.958 114.373C900.407 114.373 896.146 115.25 892.169 117.01C888.192 118.771 884.726 121.162 881.787 124.199C878.84 127.236 876.523 130.806 874.814 134.909C873.106 139.011 872.255 143.409 872.255 148.101C872.255 152.723 873.106 157.064 874.814 161.132Z" fill="#231F20"/>
<path d="M982.21 194.021V194.225V194.849C982.079 198.916 981.277 202.781 979.803 206.435C978.199 210.285 976.006 213.638 973.232 216.478C970.459 219.318 967.215 221.563 963.5 223.211C959.786 224.852 955.823 225.68 951.61 225.68H950.808C948.671 225.68 946.865 224.957 945.392 223.519C943.926 222.082 943.186 220.265 943.186 218.07C943.186 215.882 943.926 214.009 945.392 212.473C946.865 210.93 948.671 210.159 950.808 210.159H951.61C953.685 210.159 955.657 209.759 957.531 208.967C959.406 208.174 961.045 207.066 962.449 205.656C963.853 204.24 964.96 202.605 965.762 200.74C966.565 198.945 967.028 197.086 967.166 195.157V194.849V106.817C967.166 104.608 967.9 102.749 969.373 101.234C970.839 99.7192 972.617 98.9548 974.692 98.9548C976.829 98.9548 978.621 99.7122 980.059 101.234C981.498 102.749 982.217 104.615 982.217 106.817V194.021H982.21ZM965.755 76.3997C965.755 73.8469 966.606 71.6938 968.315 69.9334C970.023 68.1731 972.112 67.2964 974.581 67.2964C977.057 67.2964 979.146 68.1731 980.855 69.9334C982.563 71.6938 983.414 73.8469 983.414 76.3997C983.414 78.8825 982.563 81.0216 980.855 82.81C979.146 84.6054 977.057 85.5031 974.581 85.5031C972.105 85.5031 970.016 84.6054 968.315 82.81C966.606 81.0216 965.755 78.8825 965.755 76.3997Z" fill="#231F20"/>
<path d="M1000.41 128.856C1002.92 122.86 1006.35 117.635 1010.7 113.181C1015.04 108.735 1020.12 105.214 1025.95 102.626C1031.76 100.038 1037.95 98.7476 1044.51 98.7476C1051.12 98.7476 1057.33 100.038 1063.11 102.626C1068.89 105.214 1073.94 108.728 1078.26 113.181C1082.58 117.628 1085.99 122.853 1088.49 128.856C1091 134.852 1092.25 141.27 1092.25 148.094C1092.25 154.918 1091 161.321 1088.49 167.282C1085.98 173.251 1082.57 178.476 1078.26 182.957C1073.94 187.439 1068.89 190.973 1063.11 193.561C1057.32 196.149 1051.12 197.44 1044.51 197.44C1037.95 197.44 1031.76 196.149 1025.95 193.561C1020.13 190.973 1015.05 187.439 1010.7 182.957C1006.35 178.476 1002.92 173.251 1000.41 167.282C997.9 161.321 996.648 154.918 996.648 148.094C996.648 141.27 997.9 134.859 1000.41 128.856ZM1014.35 161.132C1016.06 165.199 1018.38 168.769 1021.33 171.841C1024.27 174.913 1027.73 177.339 1031.71 179.135C1035.69 180.93 1039.95 181.828 1044.5 181.828C1049.11 181.828 1053.41 180.93 1057.39 179.135C1061.37 177.339 1064.83 174.913 1067.77 171.841C1070.71 168.776 1073.02 165.206 1074.7 161.132C1076.37 157.064 1077.21 152.716 1077.21 148.101C1077.21 143.409 1076.37 139.018 1074.7 134.909C1073.02 130.806 1070.71 127.236 1067.77 124.199C1064.83 121.162 1061.37 118.771 1057.39 117.01C1053.41 115.25 1049.12 114.373 1044.5 114.373C1039.95 114.373 1035.69 115.25 1031.71 117.01C1027.73 118.771 1024.27 121.162 1021.33 124.199C1018.38 127.236 1016.06 130.806 1014.35 134.909C1012.65 139.011 1011.8 143.409 1011.8 148.101C1011.8 152.723 1012.65 157.064 1014.35 161.132Z" fill="#231F20"/>
<path d="M90.3337 95.3453C90.3337 88.8579 91.3436 82.609 93.1973 76.7388C64.0498 80.3226 41.4595 105.487 41.4595 136.009C41.4595 168.993 67.8333 195.735 100.363 195.735C125.941 195.735 147.709 179.197 155.843 156.088C154.079 156.249 152.295 156.341 150.489 156.341C117.261 156.341 90.3337 129.031 90.3337 95.3453Z" fill="#013EE6"/>
<path d="M251.796 133.634C250.807 107.25 232.574 84.9683 208.234 78.2705C209.79 83.6919 210.641 89.4148 210.641 95.3481C210.641 123.24 192.166 146.749 166.955 154.008C160.1 178.197 139.606 195.731 113.252 195.731H176.106H192.9C226.211 195.738 253.076 167.705 251.796 133.634Z" fill="#2E5CE6"/>
<path d="M151.685 93.2335C163.056 81.9559 178.903 75.3143 196.271 76.2961C200.387 76.5276 204.384 77.2079 208.23 78.2669C200.947 52.8925 177.858 34.3491 150.482 34.3491C123.658 34.3491 100.943 52.1561 93.1897 76.738C95.5414 76.4504 97.9277 76.2821 100.356 76.2821C132.885 76.2821 159.259 103.024 159.259 136.008C159.259 143.057 158.049 149.81 155.835 156.087C159.653 155.744 163.368 155.042 166.951 154.011C168.562 148.317 169.427 142.257 169.427 135.973C169.427 119.218 162.635 104.083 151.685 93.2335Z" fill="#3DE7FF"/>
<path d="M100.356 76.2896C97.9278 76.2896 95.5415 76.4579 93.1897 76.7454C91.336 82.6086 90.3262 88.8575 90.3262 95.3519C90.3262 129.037 117.26 156.347 150.482 156.347C152.287 156.347 154.072 156.249 155.835 156.095C158.042 149.818 159.259 143.064 159.259 136.015C159.259 103.032 132.885 76.2896 100.356 76.2896Z" fill="#003FFF"/>
<path d="M210.642 95.35C210.642 89.4166 209.791 83.6937 208.235 78.2724C204.382 77.2134 200.384 76.5331 196.275 76.3016C178.907 75.3198 163.061 81.9684 151.697 93.2389V93.246C162.639 104.096 169.431 119.231 169.431 135.978C169.431 142.269 168.567 148.329 166.955 154.017C192.167 146.751 210.642 123.242 210.642 95.35Z" fill="#0054FF"/>
</svg>
